<?xml version="1.0" encoding="UTF-8"?>
<svg viewBox="0 0 381.63 313.15" xmlns="http://www.w3.org/2000/svg" xmlns:xlink="http://www.w3.org/1999/xlink">
 <defs>
  <clipPath id="ad">
   <path d="m1345.5 1395.2h233.24c1.0216 0 1.8441 0.82251 1.8441 1.8441v222.27c0 1.0216-0.82251 1.844-1.8441 1.844-77.618-4.3955-155.62-3.5998-233.24 0-1.0216 0-1.8441-0.82239-1.8441-1.844v-222.27c0-1.0216 0.82251-1.8441 1.8441-1.8441z" fill="url(#at)"/>
  </clipPath>
  <filter id="ae">
   <feGaussianBlur stdDeviation="0.49669"/>
  </filter>
  <filter id="z">
   <feGaussianBlur stdDeviation="0.892712"/>
  </filter>
  <filter id="aa">
   <feGaussianBlur stdDeviation="0.595141"/>
  </filter>
  <linearGradient id="ai" x1=".002077" x2=".48171" y1=".54507" y2=".54507" spreadMethod="reflect">
   <stop stop-color="#8f919d" offset="0"/>
   <stop stop-color="#878a95" offset="1"/>
  </linearGradient>
  <linearGradient id="aj" x1=".51114" x2=".51114" y1="1.0518" y2=".38514" spreadMethod="reflect">
   <stop stop-color="#575a62" offset="0"/>
   <stop stop-color="#878a95" stop-opacity="0" offset="1"/>
  </linearGradient>
  <linearGradient id="ak" x1=".51114" x2=".51114" y1="1" y2="-.000767">
   <stop stop-color="#6b6f7a" stop-opacity="0" offset="0"/>
   <stop stop-color="#ebebed" offset="1"/>
  </linearGradient>
  <linearGradient id="ag" x1=".50478" x2=".50478" y1=".99694" y2="-.001088" xlink:href="#ac"/>
  <linearGradient id="at" x1=".14583" x2=".14583" y1=".86985" y2="-.002225">
   <stop stop-color="#8c909b" offset="0"/>
   <stop stop-color="#787c87" offset="1"/>
  </linearGradient>
  <linearGradient id="af" x1=".24926" x2=".24926" y1=".98822" y2="-.000628">
   <stop stop-color="#1d2025" offset="0"/>
   <stop stop-color="#31343b" offset="1"/>
  </linearGradient>
  <linearGradient id="ah" x1=".007631" x2=".48171" y1=".54508" y2=".54508" spreadMethod="reflect">
   <stop stop-color="#abafb8" offset="0"/>
   <stop stop-color="#bebdc5" offset="1"/>
  </linearGradient>
  <linearGradient id="al" x1=".3652" x2=".65585" y1=".61837" y2=".63355">
   <stop stop-color="#16191e" offset="0"/>
   <stop stop-color="#3a3d43" offset=".16349"/>
   <stop stop-color="#16191e" offset=".23888"/>
   <stop stop-color="#4a4f56" offset=".46134"/>
   <stop stop-color="#16191e" offset=".66194"/>
   <stop stop-color="#36393f" offset=".75"/>
   <stop stop-color="#16191e" offset="1"/>
  </linearGradient>
  <linearGradient id="am" x1="-.000377" x2="1.0004" y1=".5" y2=".5">
   <stop offset="0"/>
   <stop stop-opacity="0" offset="1"/>
  </linearGradient>
  <linearGradient id="ar" x1=".64535" x2=".64535" y1=".093199" y2=".61046">
   <stop stop-color="#979aa4" offset="0"/>
   <stop stop-color="#979aa4" stop-opacity="0" offset="1"/>
  </linearGradient>
  <linearGradient id="au" x1=".20811" x2=".20811" y1=".99061" y2=".47516">
   <stop stop-color="#4c5059" offset="0"/>
   <stop stop-color="#818590" offset="1"/>
  </linearGradient>
  <linearGradient id="as" x1=".088478" x2=".099949" y1=".64132" y2="-.23435">
   <stop stop-color="#979aa4" offset="0"/>
   <stop stop-color="#50525a" offset="1"/>
  </linearGradient>
  <linearGradient id="aq" x1=".45223" x2=".45223" y1="1.1257" y2=".31856">
   <stop stop-color="#888b95" offset="0"/>
   <stop stop-color="#f0f1f5" offset="1"/>
  </linearGradient>
  <linearGradient id="ab" x1=".89079" x2=".87568" y1=".88423" y2=".5085">
   <stop stop-color="#53555a" offset="0"/>
   <stop stop-color="#e7e8ec" offset="1"/>
  </linearGradient>
  <linearGradient id="ap" x1=".55227" x2=".55226" y1="1.159" y2=".25318">
   <stop stop-color="#b5b7bb" offset="0"/>
   <stop stop-color="#e5e6ea" offset="1"/>
  </linearGradient>
  <linearGradient id="an" x1=".022396" x2="1.0006" y1=".16782" y2=".16782">
   <stop stop-color="#9c9eaa" offset="0"/>
   <stop stop-color="#32373b" offset=".16566"/>
   <stop stop-color="#9c9ea9" offset=".20498"/>
   <stop stop-color="#363b3f" offset=".23579"/>
   <stop stop-color="#515257" offset=".74124"/>
   <stop stop-color="#4a4f53" offset="1"/>
  </linearGradient>
  <linearGradient id="ao" x1=".022396" x2="1.0006" y1=".16782" y2=".16782">
   <stop stop-color="#9c9eaa" offset="0"/>
   <stop stop-color="#32373b" offset=".16566"/>
   <stop stop-color="#868896" offset=".20498"/>
   <stop stop-color="#363b3f" offset=".23579"/>
   <stop stop-color="#515257" offset=".74124"/>
   <stop stop-color="#4a4f53" offset="1"/>
  </linearGradient>
  <linearGradient id="ac">
   <stop stop-color="#5e6169" offset="0"/>
   <stop stop-color="#1c2125" offset="1"/>
  </linearGradient>
  <radialGradient id="aw" cx="809.3" cy="-95.418" r="883.59" gradientTransform="matrix(7.8634e-8 1.0762 -1.2042 8.7983e-8 1094.5 -704.37)" gradientUnits="userSpaceOnUse" xlink:href="#ac"/>
  <radialGradient id="ax" cx="572.38" cy="306.61" r="2.0625" gradientUnits="userSpaceOnUse">
   <stop stop-color="#ccc" offset="0"/>
   <stop stop-color="#c1c1c1" stop-opacity="0" offset="1"/>
  </radialGradient>
 </defs>
 <path d="m321.4 303.45l-26.105 5.8802h-2.3935l-75.564-7.5686c-2.3887-0.057281-4.8923-0.24545-7.3186 0.028839-9.916 1.121-27.495 1.2126-38.326-0.098389l-7.5843 0.0695-77.234 7.499h-2.157l-24.214-5.4969 3.8269-4.5227c1.6826-1.9885 4.1043-2.6338 7.3755-2.9224l89.133-7.8626c1.5116-0.13333 2.8925-0.86325 4.1052-1.8787h55.803c1.2658 1.1133 2.8233 1.901 4.9402 2.0874l82.568 7.2711c4.4182 0.3891 7.6516 0.72275 10.078 3.7226l3.067 3.7915z" fill="url(#al)" fill-rule="evenodd" stroke="url(#am)" stroke-width=".202"/>
 <g transform="matrix(-.1968 0 0 .1968 478.07 -27.028)" fill-rule="evenodd">
  <path d="m2123.6 1677.2l-132.65 31.879h-12.162c-13.289-23.038-30.795-28.317-55.685-30.582l-328.27-29.875c-12.088-1.1348-24.859-1.2472-37.187 0.14648-23.042 2.6049-66.866 4.2927-99.192 4.5283l-0.0714-61.829h153.78c6.4321 5.6569 14.346 9.6594 25.102 10.607l419.55 36.946c22.45 1.977 38.879 3.6724 51.21 18.915l15.584 19.265z" fill="url(#ab)"/>
  <path d="m1991.2 1709.2l-12.838-0.0658c-13.289-23.038-30.265-26.373-55.154-28.638l-328.27-29.875c-12.091-1.1003-24.859-1.2472-37.187 0.14648-23.042 2.6049-69.692 3.8549-99.192 4.5283v-12.829l90.547-3.1404c16.132-0.55945 34.244-3.4864 47.156-2.3596l332.9 29.053c22.451 1.9595 41.196 10.367 51.71 26.915l10.334 16.265z" fill="url(#an)"/>
  <g fill="none" stroke="#fff">
   <path d="m1460.5 1642.5l88.547-3.1404c16.132-0.57202 34.245-3.4864 47.156-2.3596l332.9 29.053c22.451 1.9595 41.196 10.367 51.71 26.915l10.334 16.265" filter="url(#z)"/>
   <path d="m1458.3 1642.5l92.547-3.1404c16.133-0.54736 34.245-3.4864 47.156-2.3596l332.9 29.053c22.451 1.9595 41.196 10.367 51.71 26.915l10.334 16.265" filter="url(#aa)" stroke-width="1.2"/>
  </g>
 </g>
 <g transform="matrix(.1968 0 0 .1968 -96.541 -27.028)" fill-rule="evenodd">
  <path d="m2123.6 1677.2l-132.65 31.879h-12.162c-13.289-23.038-30.795-28.317-55.685-30.582l-328.27-29.875c-12.088-1.1348-24.859-1.2472-37.187 0.14648-23.042 2.6049-66.866 4.2927-99.192 4.5283l-0.0714-61.829h153.78c6.4321 5.6569 14.346 9.6594 25.102 10.607l419.55 36.946c22.45 1.977 38.879 3.6724 51.21 18.915l15.584 19.265z" fill="url(#ab)"/>
  <path d="m1991.2 1709.2l-12.838-0.0658c-13.289-23.038-30.265-26.373-55.154-28.638l-328.27-29.875c-12.091-1.1003-24.859-1.2472-37.187 0.14648-23.042 2.6049-69.692 3.8549-99.192 4.5283v-12.829l90.547-3.1404c16.132-0.55945 34.244-3.4864 47.156-2.3596l332.9 29.053c22.451 1.9595 41.196 10.367 51.71 26.915l10.334 16.265z" fill="url(#ao)"/>
  <g fill="none" stroke="#fff">
   <path d="m1460.5 1642.5l88.547-3.1404c16.132-0.57202 34.245-3.4864 47.156-2.3596l332.9 29.053c22.451 1.9595 41.196 10.367 51.71 26.915l10.334 16.265" filter="url(#z)"/>
   <path d="m1458.3 1642.5l92.547-3.1404c16.133-0.54736 34.245-3.4864 47.156-2.3596l332.9 29.053c22.451 1.9595 41.196 10.367 51.71 26.915l10.334 16.265" filter="url(#aa)" stroke-width="1.2"/>
  </g>
 </g>
 <path d="m217.36 291.85c0 1.7616-11.461 3.1896-25.599 3.1896s-25.599-1.428-25.599-3.1896 11.461-3.1896 25.599-3.1896 25.599 1.428 25.599 3.1896z" fill="url(#ap)" stroke="url(#aq)" stroke-width=".202"/>
 <path d="m168.26 290.89h45.902c0.20105 0 0.36293 0.16186 0.36293 0.36292v8.1882c0 0.20105-46.628-3.5382-46.628 0v-8.1882c0-0.20105 0.16186-0.36292 0.36293-0.36292z" fill="url(#ar)"/>
 <path d="m168.26 247.55h45.902c0.20105 0 0.36293 0.16186 0.36293 0.36293v43.744c0 0.20105-0.16188 0.36292-0.36293 0.36292-15.276-0.86505-30.626-0.70847-45.902 0-0.20106 0-0.36293-0.16186-0.36293-0.36292v-43.744c0-0.20106 0.16186-0.36293 0.36293-0.36293z" fill="url(#as)"/>
 <path d="m168.26 247.55h45.902c0.20108 0 0.36293 0.16186 0.36293 0.36293v44.137c0 0.20105-0.16185 0.36288-0.36293 0.36288-15.483-0.82083-30.79-0.84903-45.902 0-0.20106 0-0.36293-0.16184-0.36293-0.36288v-44.137c0-0.20106 0.16186-0.36293 0.36293-0.36293z" clip-path="url(#ad)" fill="none" filter="url(#ae)" stroke="url(#au)" stroke-width="4"/>
 <path id="av" d="m365.47 233.77c0.2308 0.23082 0.4155 0.48219 0.54922 0.73418-0.035034 0.90364-0.3114 1.3825-1.8009 1.3851-0.1633-0.11028-0.32336-0.24173-0.47458-0.39298-1.1999-1.566 1.2008-0.15922 0.87646-2.3333 0.29025 0.13606 0.58371 0.34088 0.84982 0.607z" fill="url(#ax)" stroke-dashoffset=".5" stroke-linecap="round" stroke-linejoin="round" stroke-width="1.25"/>
 <use transform="matrix(-1 0 0 1 381.56 4.1606e-7)" width="825.92938" height="463.36414" xlink:href="#av"/>
 <rect transform="matrix(.1968 0 0 .1968 -47.208 -15.818)" x="262.62" y="108.04" width="1893.6" height="1223" rx="5.3441" ry="5.3441" fill="url(#af)"/>
 <rect transform="matrix(.1968 0 0 .1968 -47.208 -15.818)" x="319.62" y="160.4" width="1779.6" height="1118.3" rx="5.3441" ry="5.3441" fill="url(#ag)"/>
 <rect transform="matrix(.1968 0 0 .1968 -47.208 -15.818)" x="264.12" y="99.041" width="1890.6" height="9" rx="1.8441" ry="1.8441" fill="url(#ah)"/>
 <rect transform="matrix(.1968 0 0 .1968 -47.208 -15.818)" x="264.12" y="1331.6" width="1890.6" height="9" rx="1.8441" ry="1.8441" fill="url(#ai)"/>
 <rect transform="matrix(.1968 0 0 .1968 -47.208 -15.818)" x="326.34" y="166.62" width="1766.2" height="1105.8" rx="5.3441" ry="5.3441" fill="url(#aw)"/>
 <rect transform="matrix(.1968 0 0 .1968 -47.208 -15.818)" x="264.12" y="1331.6" width="1890.6" height="9" rx="1.8441" ry="1.8441" fill="url(#aj)"/>
 <rect transform="matrix(.1968 0 0 .1968 -47.208 -15.818)" x="264.12" y="1331.6" width="1890.6" height="9" rx="1.8441" ry="1.8441" fill="url(#ak)" opacity=".656"/>
 <rect x="16.875" y="16.853" width="347.5" height="218" fill="#fff" stroke-width="5"/>
</svg>
